<?xml version="1.0" encoding="utf-8"?>
<!-- Generator: Adobe Illustrator 16.0.0, SVG Export Plug-In . SVG Version: 6.00 Build 0)  -->
<!DOCTYPE svg PUBLIC "-//W3C//DTD SVG 1.1//EN" "http://www.w3.org/Graphics/SVG/1.1/DTD/svg11.dtd">
<svg version="1.1" id="Layer_1" xmlns="http://www.w3.org/2000/svg" xmlns:xlink="http://www.w3.org/1999/xlink" x="0px" y="0px"
	 width="3330.496px" height="608px" viewBox="0 0 3330.496 608" enable-background="new 0 0 3330.496 608" xml:space="preserve">
<g id="Layer_1_1_">
</g>
<g id="Layer_2">
	<g>
		<g>
			<path fill="#FFFFFF" d="M85.598,128.964h79.677l60.96,374.319h-58.82L156.72,428.96v1.065H89.876l-10.694,73.258H24.638
				L85.598,128.964z M149.768,379.225l-26.204-185.021h-1.067L96.827,379.225H149.768z"/>
			<path fill="#FFFFFF" d="M264.734,484.302c-14.623-16.218-21.924-39.479-21.924-69.785v-21.389h55.613v25.668
				c0,24.247,10.16,36.362,30.479,36.362c9.977,0,17.557-2.94,22.728-8.824c5.165-5.881,7.754-15.418,7.754-28.606
				c0-15.684-3.568-29.495-10.696-41.44c-7.135-11.938-20.317-26.288-39.568-43.047c-24.248-21.392-41.177-40.726-50.802-58.021
				c-9.625-17.287-14.438-36.807-14.438-58.555c0-29.587,7.485-52.49,22.458-68.715c14.973-16.218,36.714-24.33,65.239-24.33
				c28.155,0,49.463,8.112,63.899,24.33c14.438,16.225,21.657,39.486,21.657,69.784v15.507H361.52V213.99
				c0-12.834-2.498-22.192-7.483-28.074c-4.998-5.881-12.301-8.823-21.927-8.823c-19.608,0-29.409,11.949-29.409,35.829
				c0,13.552,3.649,26.201,10.962,37.967c7.302,11.764,20.587,26.025,39.839,42.778c24.597,21.391,41.524,40.825,50.799,58.288
				c9.267,17.471,13.902,37.966,13.902,61.494c0,30.664-7.577,54.194-22.727,70.588c-15.157,16.399-37.165,24.599-66.041,24.599
				C300.912,508.634,279.347,500.527,264.734,484.302z"/>
			<path fill="#FFFFFF" d="M497.879,182.439h-61.496v-53.476h181.812v53.476h-61.495v320.844H497.88L497.879,182.439
				L497.879,182.439z"/>
			<path fill="#FFFFFF" d="M646.534,128.964h87.163c30.297,0,52.405,7.044,66.311,21.123c13.901,14.086,20.854,35.744,20.854,64.972
				v22.994c0,38.859-12.834,63.458-38.501,73.795v1.067c14.254,4.278,24.331,13.02,30.213,26.203
				c5.884,13.191,8.824,30.841,8.824,52.938v65.772c0,10.697,0.353,19.345,1.07,25.938c0.709,6.603,2.489,13.101,5.346,19.519
				h-59.891c-2.14-6.058-3.568-11.764-4.278-17.108c-0.719-5.351-1.069-14.976-1.069-28.877v-68.445
				c0-17.112-2.765-29.053-8.288-35.829c-5.529-6.767-15.063-10.158-28.607-10.158h-20.321v160.42h-58.819V128.964H646.534z
				 M726.744,289.388c11.766,0,20.59-3.026,26.472-9.092c5.882-6.058,8.821-16.217,8.821-30.479v-28.876
				c0-13.544-2.404-23.344-7.218-29.412c-4.813-6.057-12.391-9.09-22.727-9.09h-26.738v106.949H726.744z"/>
			<path fill="#FFFFFF" d="M880.752,484.035c-15.332-16.394-22.994-39.571-22.994-69.519V217.732
				c0-29.946,7.66-53.116,22.994-69.518c15.322-16.394,37.431-24.597,66.308-24.597c28.875,0,50.976,8.204,66.308,24.597
				c15.323,16.401,22.994,39.571,22.994,69.518v196.783c0,29.947-7.671,53.127-22.994,69.519
				c-15.332,16.401-37.433,24.599-66.308,24.599C918.183,508.634,896.074,500.436,880.752,484.035z M977.538,418.262V213.989
				c0-24.598-10.158-36.897-30.479-36.897s-30.48,12.3-30.48,36.897v204.272c0,24.599,10.16,36.896,30.48,36.896
				C967.38,455.158,977.538,442.859,977.538,418.262z"/>
			<path fill="#FFFFFF" d="M1173.244,484.302c-14.621-16.218-21.924-39.479-21.924-69.785v-21.389h55.613v25.668
				c0,24.247,10.16,36.362,30.479,36.362c9.977,0,17.556-2.94,22.727-8.824c5.166-5.881,7.755-15.418,7.755-28.606
				c0-15.684-3.567-29.495-10.695-41.44c-7.136-11.938-20.318-26.288-39.568-43.047c-24.249-21.392-41.175-40.726-50.802-58.021
				c-9.625-17.287-14.438-36.807-14.438-58.555c0-29.587,7.486-52.49,22.459-68.715c14.972-16.218,36.713-24.33,65.239-24.33
				c28.156,0,49.463,8.112,63.899,24.33c14.438,16.225,21.657,39.486,21.657,69.784v15.507h-55.613V213.99
				c0-12.834-2.499-22.192-7.485-28.074c-4.997-5.881-12.299-8.823-21.924-8.823c-19.61,0-29.411,11.949-29.411,35.829
				c0,13.552,3.651,26.201,10.962,37.967c7.303,11.764,20.589,26.025,39.838,42.778c24.6,21.391,41.525,40.825,50.801,58.288
				c9.267,17.471,13.903,37.966,13.903,61.494c0,30.664-7.578,54.194-22.729,70.588c-15.155,16.399-37.165,24.599-66.041,24.599
				C1209.425,508.634,1187.859,500.527,1173.244,484.302z"/>
			<path fill="#FFFFFF" d="M1360.403,128.964h86.628c29.229,0,51.152,7.847,65.773,23.529
				c14.614,15.692,21.924,38.686,21.924,68.982v36.896c0,30.307-7.312,53.301-21.924,68.98
				c-14.622,15.693-36.546,23.529-65.773,23.529h-27.807V503.28h-58.821V128.964z M1447.031,297.409
				c9.625,0,16.845-2.674,21.657-8.021c4.813-5.349,7.22-14.439,7.22-27.272v-44.383c0-12.834-2.407-21.925-7.22-27.272
				c-4.813-5.347-12.031-8.021-21.657-8.021h-27.807v114.969H1447.031z"/>
			<path fill="#FFFFFF" d="M1593.551,128.964h79.675l60.962,374.319h-58.824l-10.692-74.323v1.065h-66.845l-10.692,73.258h-54.544
				L1593.551,128.964z M1657.719,379.225l-26.203-185.021h-1.069l-25.669,185.021H1657.719z"/>
			<path fill="#FFFFFF" d="M1933.625,128.964h160.424v53.476h-101.604v98.927h80.747v53.475h-80.746v114.971h101.603v53.474
				h-160.424V128.964L1933.625,128.964z"/>
			<path fill="#FFFFFF" d="M2231.735,484.57c-14.798-16.045-22.189-38.679-22.189-67.914V215.594
				c0-29.227,7.394-51.871,22.189-67.912c14.789-16.042,36.271-24.063,64.438-24.063c28.157,0,49.639,8.021,64.438,24.063
				c14.79,16.042,22.192,38.685,22.192,67.912v39.57h-55.613V211.85c0-23.169-9.813-34.759-29.411-34.759
				c-19.607,0-29.407,11.591-29.407,34.759v209.084c0,22.816,9.8,34.224,29.407,34.224c19.604,0,29.411-11.405,29.411-34.224
				v-57.218h55.613v52.938c0,29.235-7.402,51.871-22.192,67.914c-14.799,16.041-36.276,24.063-64.438,24.063
				C2268.004,508.634,2246.524,500.609,2231.735,484.57z"/>
			<path fill="#FFFFFF" d="M2463.543,128.964h79.679l60.959,374.319h-58.822l-10.696-74.323v1.065h-66.841l-10.696,73.258h-54.543
				L2463.543,128.964z M2527.711,379.225l-26.201-185.021h-1.07l-25.668,185.021H2527.711z"/>
			<path fill="#FFFFFF" d="M2632.514,128.964h83.954l37.433,267.909h1.068l37.431-267.909h83.956v374.319h-55.613V219.871h-1.067
				l-42.778,283.413h-49.198l-42.776-283.413h-1.069v283.413h-51.335v-374.32H2632.514z"/>
			<path fill="#FFFFFF" d="M2920.201,128.964h86.628c29.229,0,51.151,7.847,65.774,23.529
				c14.611,15.692,21.924,38.686,21.924,68.982v36.896c0,30.307-7.313,53.301-21.924,68.98
				c-14.623,15.693-36.545,23.529-65.774,23.529h-27.806V503.28h-58.822V128.964z M3006.83,297.409
				c9.627,0,16.845-2.674,21.657-8.021c4.813-5.349,7.22-14.439,7.22-27.272v-44.383c0-12.834-2.404-21.925-7.22-27.272
				c-4.813-5.347-12.03-8.021-21.657-8.021h-27.807v114.969H3006.83z"/>
		</g>
		<polygon fill="#FFFFFF" points="1770,83.652 1761.366,101.146 1742.047,103.959 1756.025,117.57 1752.719,136.818 1770,127.72 
			1787.272,136.818 1783.973,117.57 1797.954,103.959 1778.638,101.146 		"/>
		<polygon fill="#FFFFFF" points="1766.756,36.609 1760.923,48.431 1747.88,50.327 1757.316,59.523 1755.089,72.511 
			1766.756,66.382 1778.406,72.511 1776.192,59.523 1785.625,50.327 1772.589,48.431 		"/>
		<polygon fill="#FFFFFF" points="1816.112,30.486 1807.465,47.982 1788.155,50.789 1802.132,64.403 1798.829,83.652 
			1816.112,74.572 1833.384,83.652 1830.084,64.403 1844.062,50.789 1824.74,47.982 		"/>
		<path fill="#FFFFFF" d="M1988.715,32.629c-103.922,47.083-176.355,151.483-176.355,273.013
			c0,121.51,72.437,225.901,176.355,272.989c-129.984-23.088-228.767-136.379-228.767-272.989
			C1759.948,169.022,1858.731,55.721,1988.715,32.629z"/>
	</g>
</g>
<g>
	<path fill="#FFFFFF" d="M3140.948,183.688V69.636h-25.523v-24.21h78.466v24.21h-24.356v114.052H3140.948z M3207.162,183.688V45.426
		h28.44l26.106,88.966l27.856-88.966h27.273v138.262h-23.189v-79.924l-24.794,79.924h-12.688l-25.815-80.07v80.07H3207.162z"/>
</g>
</svg>
